<?xml version="1.0" encoding="iso-8859-1"?>
<!-- Generator: Adobe Illustrator 19.0.0, SVG Export Plug-In . SVG Version: 6.00 Build 0)  -->
<svg version="1.1" id="Layer_1" xmlns="http://www.w3.org/2000/svg" xmlns:xlink="http://www.w3.org/1999/xlink" x="0px" y="0px"
	 viewBox="0 0 512 512" style="enable-background:new 0 0 512 512;" xml:space="preserve">
<path style="fill:#FFFFFF;" d="M372.801,508H94.307c-15.735-0.04-28.477-12.783-28.517-28.517V32.517
	C65.83,16.782,78.573,4.04,94.307,4h323.378c15.735,0.04,28.477,12.783,28.517,28.517v402.306"/>
<path style="fill:#8E8E8E;" d="M372.801,512H94.307c-17.95-0.024-32.485-14.567-32.509-32.517V32.517
	C61.814,14.567,76.357,0.024,94.307,0h323.378c17.95,0.024,32.493,14.559,32.517,32.509v402.314h-7.999V32.517
	c-0.024-13.535-10.991-24.502-24.526-24.518H94.307c-13.535,0.016-24.494,10.983-24.51,24.518v446.966
	c0.016,13.527,10.983,24.494,24.51,24.518h278.502V512H372.801z"/>
<path style="fill:#333333;" d="M372.801,450.246v61.706l77.129-77.129h-61.682C379.736,434.839,372.833,441.727,372.801,450.246z"/>
<g>
	<path style="fill:#E21B1B;" d="M195.146,335.097l18.174,2.928c-2.472,7.335-7.103,13.751-13.295,18.398
		c-5.943,4.248-13.095,6.463-20.398,6.327c-7.783,0.4-15.383-2.456-20.974-7.887c-5.408-5.887-8.207-13.711-7.759-21.694
		c-0.032-7.367,1.568-14.647,4.696-21.31c3.024-6.567,7.951-12.079,14.143-15.807c6.231-3.824,13.407-5.823,20.718-5.767
		c7.079-0.36,14.047,1.92,19.542,6.399c4.872,4.272,7.831,10.327,8.207,16.798l-17.79,1.888c-0.128-3.176-1.384-6.199-3.544-8.535
		c-2.072-1.88-4.8-2.856-7.591-2.736c-3.744,0.04-7.343,1.464-10.103,4c-3.488,3.272-5.975,7.463-7.199,12.087
		c-1.592,4.872-2.432,9.959-2.504,15.087c-0.224,3.416,0.848,6.791,3,9.447c1.88,2.168,4.624,3.384,7.495,3.328
		c3.176-0.064,6.231-1.216,8.663-3.256C191.674,342.24,193.93,338.88,195.146,335.097z"/>
	<path style="fill:#E21B1B;" d="M220.031,341.808l18.118-2.864c2.04,6.847,8.671,11.263,15.775,10.495
		c3.632,0.184,7.215-0.824,10.223-2.864c1.632-1.04,2.64-2.824,2.672-4.76c0-1.264-0.488-2.48-1.368-3.392
		c-2.352-1.632-4.984-2.816-7.759-3.512c-7.359-1.992-14.415-4.976-20.974-8.863c-4.112-3.168-6.455-8.103-6.319-13.287
		c-0.048-5.368,2.176-10.503,6.127-14.143c7.023-5.999,16.126-8.975,25.334-8.295c7.071-0.472,14.127,1.232,20.198,4.888
		c4.48,3.128,7.583,7.863,8.663,13.223l-17.262,3c-0.776-2.344-2.344-4.352-4.432-5.671c-3.048-1.76-6.519-2.64-10.039-2.536
		c-2.952-0.248-5.895,0.432-8.439,1.952c-1.544,0.992-2.504,2.672-2.568,4.504c0.032,1.792,1.024,3.432,2.6,4.296
		c3.384,1.536,6.895,2.752,10.495,3.648c6.527,1.48,12.727,4.136,18.31,7.823c4.088,3.088,6.495,7.911,6.511,13.031
		c-0.032,6.647-3.072,12.927-8.263,17.086c-6.631,5.176-14.935,7.735-23.326,7.199c-8.103,0.488-16.174-1.424-23.198-5.503
		C225.695,353.599,221.759,348.119,220.031,341.808z"/>
	<path style="fill:#E21B1B;" d="M294.248,341.808l18.118-2.864c2.04,6.847,8.671,11.263,15.775,10.495
		c3.632,0.184,7.215-0.824,10.223-2.864c1.632-1.04,2.64-2.824,2.672-4.76c0-1.264-0.488-2.48-1.368-3.392
		c-2.352-1.632-4.984-2.816-7.759-3.512c-7.359-1.992-14.415-4.976-20.974-8.863c-4.112-3.168-6.455-8.103-6.319-13.287
		c-0.048-5.368,2.176-10.503,6.127-14.143c7.023-5.991,16.134-8.967,25.342-8.279c7.071-0.472,14.127,1.232,20.198,4.888
		c4.48,3.128,7.583,7.863,8.663,13.223l-17.262,3c-0.776-2.344-2.344-4.352-4.432-5.671c-3.048-1.76-6.519-2.64-10.039-2.536
		c-2.952-0.248-5.895,0.432-8.439,1.952c-1.544,0.992-2.504,2.672-2.568,4.504c0.032,1.792,1.024,3.432,2.6,4.296
		c3.384,1.536,6.895,2.752,10.495,3.648c6.527,1.48,12.727,4.136,18.31,7.823c4.088,3.088,6.495,7.911,6.511,13.031
		c-0.04,6.647-3.08,12.919-8.271,17.07c-6.631,5.176-14.935,7.735-23.326,7.199c-8.103,0.488-16.174-1.424-23.198-5.503
		C299.904,353.599,295.968,348.119,294.248,341.808z"/>
</g>
<path d="M166.676,168.384l3.712-17.134c2.824-0.056,5.607-0.6,8.247-1.6c2.2-1.024,4.128-2.568,5.599-4.496
	c1.776-2.224,3.176-4.72,4.144-7.391c1.472-4.368,2.64-8.823,3.504-13.351c1.088-6.383,2.936-12.615,5.503-18.558
	c1.568-3.304,3.848-6.215,6.671-8.527c3.208-2.304,6.831-3.968,10.671-4.888c4.528-0.952,9.159-1.36,13.783-1.208h3.76
	l-3.648,17.062c-3.624-0.208-7.263,0.144-10.783,1.032c-1.632,0.592-3.016,1.72-3.92,3.2c-1.44,3.376-2.512,6.895-3.2,10.503
	c-2.664,10.559-4.456,16.982-5.359,19.27c-1.432,3.688-3.488,7.103-6.071,10.103c-2.856,3-6.183,5.519-9.847,7.463
	c2.632,1.664,4.768,3.992,6.207,6.751c1.464,3.264,2.152,6.823,2,10.399c-0.088,2.568-0.376,5.12-0.856,7.639
	c-1.568,9.279-2.552,14.775-2.96,16.494c-0.36,1.4-0.56,2.832-0.6,4.28c-0.032,1.176,0.328,2.336,1.032,3.28
	c0.776,0.968,1.84,1.664,3.032,2c2.936,0.576,5.935,0.792,8.927,0.648l-3.76,17.022h-3.792c-4.952,0.2-9.911-0.344-14.703-1.6
	c-3.016-0.904-5.647-2.776-7.495-5.32c-1.872-2.84-2.792-6.199-2.64-9.599c0.328-5.455,1.168-10.871,2.504-16.166
	c1.264-4.984,2.104-10.071,2.504-15.199c0.288-3.24-0.672-6.471-2.68-9.031C173.492,169.296,170.108,168.192,166.676,168.384z"/>
<path d="M348.091,168.384c-3.504-0.008-6.959,0.88-10.031,2.568c-2.736,1.848-4.92,4.4-6.319,7.391
	c-2.44,5.599-4.184,11.471-5.208,17.494c-1.064,6.151-2.856,12.159-5.351,17.878c-1.568,3.304-3.856,6.215-6.679,8.527
	c-3.184,2.304-6.783,3.96-10.599,4.888c-4.544,1.016-9.199,1.448-13.847,1.288h-3.784l3.712-17.134
	c3.536,0.192,7.071-0.168,10.495-1.08c1.728-0.608,3.208-1.76,4.216-3.28c1.424-3.304,2.496-6.751,3.2-10.279
	c2.616-10.471,4.336-16.75,5.144-18.846c1.504-3.864,3.648-7.455,6.351-10.599c2.744-3.056,6.039-5.559,9.711-7.391
	c-2.704-1.832-4.928-4.28-6.495-7.143c-1.336-3.152-1.952-6.567-1.792-9.991c0.088-2.544,0.376-5.072,0.856-7.567
	c1.528-9.143,2.496-14.647,2.92-16.518c0.384-1.552,0.608-3.152,0.648-4.752c0.056-1.12-0.264-2.224-0.896-3.144
	c-0.744-0.912-1.776-1.552-2.92-1.824c-3.024-0.544-6.103-0.744-9.175-0.608l3.72-17.062h3.784c4.96-0.2,9.911,0.344,14.711,1.6
	c3.008,0.904,5.631,2.76,7.495,5.288c1.864,2.792,2.792,6.111,2.64,9.463c-0.32,5.479-1.16,10.919-2.496,16.238
	c-1.264,4.984-2.104,10.071-2.496,15.199c-0.288,3.248,0.672,6.487,2.672,9.063c2.664,2.224,6.063,3.368,9.527,3.2L348.091,168.384z
	"/>
<g>
</g>
<g>
</g>
<g>
</g>
<g>
</g>
<g>
</g>
<g>
</g>
<g>
</g>
<g>
</g>
<g>
</g>
<g>
</g>
<g>
</g>
<g>
</g>
<g>
</g>
<g>
</g>
<g>
</g>
</svg>
